<?xml version="1.0" encoding="UTF-8"?><!DOCTYPE svg PUBLIC "-//W3C//DTD SVG 1.1//EN" "http://www.w3.org/Graphics/SVG/1.1/DTD/svg11.dtd"><svg xmlns="http://www.w3.org/2000/svg" xmlns:xlink="http://www.w3.org/1999/xlink" version="1.1" id="Ebene_1" x="0px" y="0px" width="64px" height="64px" viewBox="0 0 64 64" xml:space="preserve"><path d="M52 64c2.206 0 4-1.794 4-4V4c0-2.206-1.794-4-4-4H26c-1.638 0-3.668.841-4.828 2L10 13.171C8.841 14.33 8 16.36 8 18v42c0 2.206 1.794 4 4 4h40zm0-60v56H12V18h10c2.206 0 4-1.794 4-4V4h26zM22 6.828V14h-7.172L22 6.828z"/><path d="M32 16h12a2 2 0 0 0 0-4H32a2 2 0 0 0 0 4z"/><path d="M44 22H20a2 2 0 0 0 0 4h24a2 2 0 0 0 0-4z"/><path d="M44 32H20a2 2 0 0 0 0 4h24a2 2 0 0 0 0-4z"/><path d="M44 42H20a2 2 0 0 0 0 4h24a2 2 0 0 0 0-4z"/><path d="M44 52H20a2 2 0 0 0 0 4h24a2 2 0 0 0 0-4z"/><metadata><rdf:RDF xmlns:rdf="http://www.w3.org/1999/02/22-rdf-syntax-ns#" xmlns:rdfs="http://www.w3.org/2000/01/rdf-schema#" xmlns:dc="http://purl.org/dc/elements/1.1/"><rdf:Description about="https://iconscout.com/legal#licenses" dc:title="paper,sheet" dc:description="paper,sheet" dc:publisher="Iconscout" dc:date="2017-09-21" dc:format="image/svg+xml" dc:language="en"><dc:creator><rdf:Bag><rdf:li>Dario Ferrando</rdf:li></rdf:Bag></dc:creator></rdf:Description></rdf:RDF></metadata></svg>